<?xml version="1.0" encoding="UTF-8"?>
<svg xmlns="http://www.w3.org/2000/svg" xmlns:xlink="http://www.w3.org/1999/xlink" width="32px" height="32px" viewBox="0 0 32 32" version="1.1">
<g id="surface1">
<path style=" stroke:none;fill-rule:nonzero;fill:rgb(0%,0%,0%);fill-opacity:1;" d="M 29.789062 8.148438 L 29.671875 8.148438 C 29.660156 7.054688 28.769531 6.171875 27.675781 6.171875 L 17.761719 6.171875 C 17.511719 6.171875 17.265625 6.070312 17.089844 5.894531 L 14.054688 2.859375 C 13.675781 2.480469 13.175781 2.273438 12.640625 2.273438 L 2.175781 2.273438 C 1.074219 2.273438 0.175781 3.167969 0.175781 4.273438 L 0.175781 28.109375 C 0.175781 28.980469 0.886719 29.691406 1.761719 29.691406 L 29.789062 29.691406 C 30.890625 29.691406 31.789062 28.796875 31.789062 27.695312 L 31.789062 10.144531 C 31.789062 9.042969 30.890625 8.148438 29.789062 8.148438 Z M 2.289062 10.144531 L 2.289062 28.109375 C 2.289062 28.398438 2.050781 28.636719 1.761719 28.636719 C 1.46875 28.636719 1.230469 28.398438 1.230469 28.109375 L 1.230469 4.273438 C 1.230469 3.75 1.652344 3.324219 2.175781 3.324219 L 12.640625 3.324219 C 12.894531 3.324219 13.132812 3.425781 13.308594 3.601562 L 16.347656 6.640625 C 16.71875 7.011719 17.234375 7.226562 17.757812 7.226562 L 27.675781 7.226562 C 28.1875 7.226562 28.605469 7.636719 28.617188 8.148438 L 4.289062 8.148438 C 3.1875 8.148438 2.289062 9.042969 2.289062 10.144531 Z M 30.734375 27.695312 C 30.734375 28.214844 30.3125 28.636719 29.789062 28.636719 L 3.253906 28.636719 C 3.3125 28.472656 3.34375 28.292969 3.34375 28.109375 L 3.34375 10.144531 C 3.34375 9.625 3.769531 9.203125 4.289062 9.203125 L 29.789062 9.203125 C 30.3125 9.203125 30.734375 9.625 30.734375 10.144531 Z M 30.734375 27.695312 "/>
</g>
</svg>
