<?xml version="1.0" encoding="UTF-8"?>
<svg xmlns="http://www.w3.org/2000/svg" xmlns:xlink="http://www.w3.org/1999/xlink" width="32px" height="32px" viewBox="0 0 32 32" version="1.1">
<g id="surface1">
<path style=" stroke:none;fill-rule:nonzero;fill:rgb(0%,0%,0%);fill-opacity:1;" d="M 31.085938 31.789062 L 0.878906 31.789062 C 0.492188 31.789062 0.175781 31.472656 0.175781 31.085938 L 0.175781 0.878906 C 0.175781 0.492188 0.492188 0.175781 0.878906 0.175781 L 23.988281 0.175781 C 24.175781 0.175781 24.355469 0.25 24.484375 0.382812 L 31.582031 7.480469 C 31.714844 7.609375 31.789062 7.789062 31.789062 7.976562 L 31.789062 31.085938 C 31.789062 31.472656 31.472656 31.789062 31.085938 31.789062 Z M 1.582031 30.382812 L 30.382812 30.382812 L 30.382812 8.265625 L 23.699219 1.582031 L 1.582031 1.582031 Z M 1.582031 30.382812 "/>
<path style=" stroke:none;fill-rule:nonzero;fill:rgb(0%,0%,0%);fill-opacity:1;" d="M 25.410156 31.789062 L 6.554688 31.789062 C 6.167969 31.789062 5.851562 31.472656 5.851562 31.085938 L 5.851562 17.089844 C 5.851562 16.703125 6.167969 16.386719 6.554688 16.386719 L 25.410156 16.386719 C 25.796875 16.386719 26.113281 16.703125 26.113281 17.089844 L 26.113281 31.085938 C 26.113281 31.472656 25.796875 31.789062 25.410156 31.789062 Z M 7.257812 30.382812 L 24.707031 30.382812 L 24.707031 17.792969 L 7.257812 17.792969 Z M 7.257812 30.382812 "/>
<path style=" stroke:none;fill-rule:nonzero;fill:rgb(0%,0%,0%);fill-opacity:1;" d="M 19.292969 7.78125 L 6.554688 7.78125 C 6.167969 7.78125 5.851562 7.464844 5.851562 7.078125 L 5.851562 0.878906 C 5.851562 0.492188 6.167969 0.175781 6.554688 0.175781 L 19.292969 0.175781 C 19.679688 0.175781 19.996094 0.492188 19.996094 0.878906 L 19.996094 7.078125 C 19.996094 7.464844 19.679688 7.78125 19.292969 7.78125 Z M 7.257812 6.375 L 18.589844 6.375 L 18.589844 1.582031 L 7.257812 1.582031 Z M 7.257812 6.375 "/>
<path style=" stroke:none;fill-rule:nonzero;fill:rgb(0%,0%,0%);fill-opacity:1;" d="M 31.085938 31.789062 L 0.878906 31.789062 C 0.492188 31.789062 0.175781 31.472656 0.175781 31.085938 L 0.175781 0.878906 C 0.175781 0.492188 0.492188 0.175781 0.878906 0.175781 L 23.988281 0.175781 C 24.175781 0.175781 24.355469 0.25 24.484375 0.382812 L 31.582031 7.480469 C 31.714844 7.609375 31.789062 7.789062 31.789062 7.976562 L 31.789062 31.085938 C 31.789062 31.472656 31.472656 31.789062 31.085938 31.789062 Z M 1.582031 30.382812 L 30.382812 30.382812 L 30.382812 8.265625 L 23.699219 1.582031 L 1.582031 1.582031 Z M 1.582031 30.382812 "/>
<path style=" stroke:none;fill-rule:nonzero;fill:rgb(0%,0%,0%);fill-opacity:1;" d="M 22.203125 21.359375 L 9.761719 21.359375 C 9.375 21.359375 9.058594 21.042969 9.058594 20.65625 C 9.058594 20.265625 9.375 19.953125 9.761719 19.953125 L 22.203125 19.953125 C 22.589844 19.953125 22.902344 20.265625 22.902344 20.65625 C 22.902344 21.042969 22.589844 21.359375 22.203125 21.359375 Z M 22.203125 21.359375 "/>
<path style=" stroke:none;fill-rule:nonzero;fill:rgb(0%,0%,0%);fill-opacity:1;" d="M 22.203125 24.789062 L 9.761719 24.789062 C 9.375 24.789062 9.058594 24.476562 9.058594 24.085938 C 9.058594 23.699219 9.375 23.386719 9.761719 23.386719 L 22.203125 23.386719 C 22.589844 23.386719 22.902344 23.699219 22.902344 24.085938 C 22.902344 24.476562 22.589844 24.789062 22.203125 24.789062 Z M 22.203125 24.789062 "/>
<path style=" stroke:none;fill-rule:nonzero;fill:rgb(0%,0%,0%);fill-opacity:1;" d="M 22.203125 28.222656 L 9.761719 28.222656 C 9.375 28.222656 9.058594 27.90625 9.058594 27.519531 C 9.058594 27.132812 9.375 26.816406 9.761719 26.816406 L 22.203125 26.816406 C 22.589844 26.816406 22.902344 27.132812 22.902344 27.519531 C 22.902344 27.90625 22.589844 28.222656 22.203125 28.222656 Z M 22.203125 28.222656 "/>
</g>
</svg>
