<svg xmlns="http://www.w3.org/2000/svg" xmlns:xlink="http://www.w3.org/1999/xlink" version="1.1" width="256" height="256" viewBox="0 0 256 256" xml:space="preserve">
<g style="stroke: none; stroke-width: 0; stroke-dasharray: none; stroke-linecap: butt; stroke-linejoin: miter; stroke-miterlimit: 10; fill: none; fill-rule: nonzero; opacity: 1;" transform="translate(1.4065934065934016 1.4065934065934016) scale(2.81 2.81)">
	<path d="M 88 90 H 2 c -1.104 0 -2 -0.896 -2 -2 V 2 c 0 -1.104 0.896 -2 2 -2 h 65.795 c 0.53 0 1.039 0.211 1.414 0.586 l 20.205 20.206 C 89.789 21.167 90 21.675 90 22.206 V 88 C 90 89.104 89.104 90 88 90 z M 4 86 h 82 V 23.034 L 66.967 4 H 4 V 86 z" style="stroke: none; stroke-width: 1; stroke-dasharray: none; stroke-linecap: butt; stroke-linejoin: miter; stroke-miterlimit: 10; fill: rgb(0,0,0); fill-rule: nonzero; opacity: 1;" transform=" matrix(1 0 0 1 0 0) " stroke-linecap="round"/>
	<path d="M 71.841 90 H 18.159 c -1.104 0 -2 -0.896 -2 -2 V 48.152 c 0 -1.104 0.896 -2 2 -2 h 53.682 c 1.104 0 2 0.896 2 2 V 88 C 73.841 89.104 72.945 90 71.841 90 z M 20.159 86 h 49.682 V 50.152 H 20.159 V 86 z" style="stroke: none; stroke-width: 1; stroke-dasharray: none; stroke-linecap: butt; stroke-linejoin: miter; stroke-miterlimit: 10; fill: rgb(0,0,0); fill-rule: nonzero; opacity: 1;" transform=" matrix(1 0 0 1 0 0) " stroke-linecap="round"/>
	<path d="M 54.427 21.649 H 18.159 c -1.104 0 -2 -0.896 -2 -2 V 2 c 0 -1.104 0.896 -2 2 -2 h 36.268 c 1.104 0 2 0.896 2 2 v 17.649 C 56.427 20.754 55.531 21.649 54.427 21.649 z M 20.159 17.649 h 32.268 V 4 H 20.159 V 17.649 z" style="stroke: none; stroke-width: 1; stroke-dasharray: none; stroke-linecap: butt; stroke-linejoin: miter; stroke-miterlimit: 10; fill: rgb(0,0,0); fill-rule: nonzero; opacity: 1;" transform=" matrix(1 0 0 1 0 0) " stroke-linecap="round"/>
	<path d="M 88 90 H 2 c -1.104 0 -2 -0.896 -2 -2 V 2 c 0 -1.104 0.896 -2 2 -2 h 65.795 c 0.53 0 1.039 0.211 1.414 0.586 l 20.205 20.206 C 89.789 21.167 90 21.675 90 22.206 V 88 C 90 89.104 89.104 90 88 90 z M 4 86 h 82 V 23.034 L 66.967 4 H 4 V 86 z" style="stroke: none; stroke-width: 1; stroke-dasharray: none; stroke-linecap: butt; stroke-linejoin: miter; stroke-miterlimit: 10; fill: rgb(0,0,0); fill-rule: nonzero; opacity: 1;" transform=" matrix(1 0 0 1 0 0) " stroke-linecap="round"/>
	<path d="M 62.706 60.304 H 27.293 c -1.104 0 -2 -0.896 -2 -2 s 0.896 -2 2 -2 h 35.413 c 1.104 0 2 0.896 2 2 S 63.811 60.304 62.706 60.304 z" style="stroke: none; stroke-width: 1; stroke-dasharray: none; stroke-linecap: butt; stroke-linejoin: miter; stroke-miterlimit: 10; fill: rgb(0,0,0); fill-rule: nonzero; opacity: 1;" transform=" matrix(1 0 0 1 0 0) " stroke-linecap="round"/>
	<path d="M 62.706 70.076 H 27.293 c -1.104 0 -2 -0.896 -2 -2 s 0.896 -2 2 -2 h 35.413 c 1.104 0 2 0.896 2 2 S 63.811 70.076 62.706 70.076 z" style="stroke: none; stroke-width: 1; stroke-dasharray: none; stroke-linecap: butt; stroke-linejoin: miter; stroke-miterlimit: 10; fill: rgb(0,0,0); fill-rule: nonzero; opacity: 1;" transform=" matrix(1 0 0 1 0 0) " stroke-linecap="round"/>
	<path d="M 62.706 79.849 H 27.293 c -1.104 0 -2 -0.896 -2 -2 s 0.896 -2 2 -2 h 35.413 c 1.104 0 2 0.896 2 2 S 63.811 79.849 62.706 79.849 z" style="stroke: none; stroke-width: 1; stroke-dasharray: none; stroke-linecap: butt; stroke-linejoin: miter; stroke-miterlimit: 10; fill: rgb(0,0,0); fill-rule: nonzero; opacity: 1;" transform=" matrix(1 0 0 1 0 0) " stroke-linecap="round"/>
</g>
</svg>